<svg width="10" height="10" viewBox="0 0 10 10" fill="none" xmlns="http://www.w3.org/2000/svg">
<path d="M4.97475 0.278693L6.0202 2.55142C6.06566 2.68778 6.20202 2.77869 6.33838 2.82415L8.70202 3.18778C9.11111 3.18778 9.24747 3.64233 8.97475 3.91506L7.24747 5.68778C7.15657 5.77869 7.11111 5.96051 7.11111 6.09688L7.5202 8.55142C7.56566 8.91506 7.20202 9.23324 6.88384 9.05142L4.74747 7.8696C4.61111 7.77869 4.47475 7.77869 4.33838 7.8696L2.20202 9.05142C1.88384 9.23324 1.47475 8.96051 1.56566 8.55142L1.97475 6.09688C2.0202 5.96051 1.92929 5.77869 1.83838 5.68778L0.111111 3.91506C-0.116162 3.64233 0.020202 3.18778 0.383838 3.14233L2.74747 2.77869C2.88384 2.77869 3.0202 2.64233 3.06566 2.50597L4.11111 0.233239C4.33838 -0.084943 4.79293 -0.084943 4.97475 0.278693Z" fill="#F18757"/>
</svg>
