<svg width="39" height="38" viewBox="0 0 39 38" fill="none" xmlns="http://www.w3.org/2000/svg">
<path d="M13.796 22.596C15.044 22.596 15.812 21.82 15.812 20.764V20.748C15.812 19.708 15.068 19.308 14.308 19.18L15.404 18.132C15.628 17.916 15.772 17.748 15.772 17.444C15.772 17.108 15.508 16.9 15.148 16.9H12.42C12.132 16.9 11.892 17.14 11.892 17.428C11.892 17.716 12.132 17.956 12.42 17.956H14.14L13.052 19.052C12.86 19.244 12.788 19.388 12.788 19.556C12.788 19.844 13.028 20.084 13.316 20.084H13.508C14.196 20.084 14.604 20.34 14.604 20.796V20.812C14.604 21.228 14.276 21.492 13.812 21.492C13.372 21.492 13.036 21.348 12.716 21.076C12.62 20.996 12.5 20.924 12.324 20.924C12.004 20.924 11.732 21.196 11.732 21.516C11.732 21.692 11.828 21.86 11.94 21.956C12.396 22.348 12.996 22.596 13.796 22.596ZM18.9887 22.596C20.2047 22.596 21.1247 21.804 21.1247 20.66V20.644C21.1247 19.476 20.2687 18.86 19.1567 18.86C18.6047 18.86 18.2767 19.036 17.9967 19.22C18.0767 18.484 18.4287 17.924 19.1247 17.924C19.4607 17.924 19.6927 18.004 19.9487 18.148C20.0367 18.196 20.1487 18.236 20.2527 18.236C20.5727 18.236 20.8367 17.988 20.8367 17.668C20.8367 17.42 20.7087 17.252 20.5167 17.14C20.1807 16.94 19.7247 16.804 19.1647 16.804C17.4927 16.804 16.7087 18.132 16.7087 19.86V19.876C16.7087 20.988 16.9647 21.588 17.3727 21.996C17.7647 22.388 18.2607 22.596 18.9887 22.596ZM18.9407 21.54C18.3327 21.54 17.9647 21.18 17.9647 20.708V20.692C17.9647 20.22 18.3167 19.884 18.9247 19.884C19.5327 19.884 19.9007 20.228 19.9007 20.7V20.716C19.9007 21.196 19.5487 21.54 18.9407 21.54ZM24.4856 22.596C25.9816 22.596 26.9816 21.324 26.9816 19.7V19.684C26.9816 18.06 25.9816 16.804 24.5016 16.804C23.0136 16.804 22.0056 18.076 22.0056 19.7V19.716C22.0056 21.34 22.9896 22.596 24.4856 22.596ZM24.5016 21.484C23.7576 21.484 23.2696 20.724 23.2696 19.7V19.684C23.2696 18.66 23.7496 17.916 24.4856 17.916C25.2216 17.916 25.7176 18.684 25.7176 19.7V19.716C25.7176 20.732 25.2456 21.484 24.5016 21.484Z" fill="white"/>
<ellipse cx="19.5" cy="19" rx="18.5" ry="18" stroke="white" stroke-width="2"/>
<ellipse cx="19.5" cy="18.5" rx="10.5" ry="17.5" stroke="white"/>
<ellipse cx="19.2394" cy="20.1338" rx="18.2394" ry="9.6338" stroke="white"/>
</svg>
