<svg width="21" height="17" viewBox="0 0 21 17" fill="none" xmlns="http://www.w3.org/2000/svg">
<path fill-rule="evenodd" clip-rule="evenodd" d="M15.2667 1.72088H3.6C2.52073 1.72088 1.70678 2.40752 1.70678 3.6V10.4667C1.70678 10.8 1.18879 11.0157 0.855456 11.0157C0.522122 11.0157 0 10.7333 0 10.4667V3.6C0 1.33333 1.33333 0 3.6 0H15.2667C15.5333 0 15.7363 0.54693 15.7363 0.880263C15.7363 1.2136 15.5333 1.72088 15.2667 1.72088ZM16.1319 6.2C16.2437 6.2 16.4115 6.25128 16.4674 6.35385L18.1445 8.71282C18.2563 8.86667 18.2004 9.12308 18.0327 9.22564C17.865 9.32821 17.5855 9.27692 17.4737 9.12308L16.1319 7.32821L14.1193 9.89231C14.0075 9.99487 13.8957 10.0462 13.7839 10.0462C13.6721 10.0462 13.5044 9.99487 13.4485 9.89231L12.2186 8.55897L8.58471 12.7128C8.47289 12.8154 8.36108 12.8667 8.24927 12.8667C8.13746 12.8667 8.02565 12.8154 7.96975 12.7641C7.80203 12.6103 7.74612 12.3538 7.91384 12.2L11.8831 7.68718C11.9949 7.58462 12.1067 7.53333 12.2186 7.53333C12.3304 7.53333 12.4981 7.58462 12.554 7.68718L13.728 8.96923L15.7965 6.35385C15.8524 6.25128 15.9642 6.2 16.1319 6.2ZM18.3333 2.26667H4.93333C3.53333 2.26667 2.4 3.4 2.4 4.8V13.6C2.4 15 3.53333 16.1333 4.93333 16.1333H18.3333C19.7333 16.1333 20.8667 15 20.8667 13.6V4.8C20.8667 3.4 19.7333 2.26667 18.3333 2.26667ZM5.52646 14.4H17.421C18.272 14.4 19.1 13.4121 19.1 12.6658V5.53333C19.1 4.72485 18.2065 4 17.421 4H5.52646C4.67541 4 4.16291 4.78704 4.16291 5.53333V12.6658C4.16291 13.4743 4.74088 14.4 5.52646 14.4ZM9.4 7.53333C9.4 6.46667 8.53333 5.53333 7.4 5.53333C6.33333 5.53333 5.4 6.4 5.4 7.53333C5.4 8.6 6.26667 9.53333 7.4 9.53333C8.53333 9.53333 9.4 8.6 9.4 7.53333ZM7.38 6.19C6.66 6.19 6.03 6.82 6.03 7.54C6.03 8.26 6.66 8.89 7.38 8.89C8.1 8.89 8.73 8.26 8.73 7.54C8.73 6.82 8.1 6.19 7.38 6.19Z" fill="white"/>
</svg>
