<svg width="15" height="10" viewBox="0 0 15 10" fill="none" xmlns="http://www.w3.org/2000/svg">
<path fill-rule="evenodd" clip-rule="evenodd" d="M7.33333 0C4 0 1.13333 2.06667 0 5C1.13333 7.93333 4 10 7.33333 10C10.6667 10 13.5333 7.93333 14.6667 5C13.5333 2.06667 10.6667 0 7.33333 0ZM7.33333 8.33333C5.46667 8.33333 4 6.86667 4 5C4 3.13333 5.46667 1.66667 7.33333 1.66667C9.2 1.66667 10.6667 3.13333 10.6667 5C10.6667 6.86667 9.2 8.33333 7.33333 8.33333ZM7.33333 3C6.2 3 5.33333 3.86667 5.33333 5C5.33333 6.13333 6.2 7 7.33333 7C8.46667 7 9.33333 6.13333 9.33333 5C9.33333 3.86667 8.46667 3 7.33333 3Z" fill="white"/>
</svg>
